<svg xmlns="http://www.w3.org/2000/svg" xmlns:xlink="http://www.w3.org/1999/xlink" width="713.646" height="693.852" viewBox="0 0 713.646 693.852">
  <defs>
    <linearGradient id="linear-gradient" x1="0.5" y1="0.2" x2="0.5" y2="1" gradientUnits="objectBoundingBox">
      <stop offset="0" stop-color="#fff" stop-opacity="0"/>
      <stop offset="1" stop-color="#0080ff"/>
    </linearGradient>
    <linearGradient id="linear-gradient-2" y1="0.5" x2="1" y2="0.5" gradientUnits="objectBoundingBox">
      <stop offset="0" stop-color="#fff" stop-opacity="0.2"/>
      <stop offset="1" stop-color="#fff" stop-opacity="0.702"/>
    </linearGradient>
    <clipPath id="clip-path">
      <ellipse id="Ellipse_5" data-name="Ellipse 5" cx="31.813" cy="21.296" rx="31.813" ry="21.296" transform="matrix(0.774, -0.633, 0.633, 0.774, 0, 40.29)" fill="none"/>
    </clipPath>
    <clipPath id="clip-path-2">
      <ellipse id="Ellipse_7" data-name="Ellipse 7" cx="32.512" cy="21.764" rx="32.512" ry="21.764" transform="translate(0 41.175) rotate(-39.289)" fill="none"/>
    </clipPath>
  </defs>
  <g id="Hero_Illustration" data-name="Hero Illustration" transform="translate(-652.354 -139.622)">
    <path id="Path_117" data-name="Path 117" d="M1366,139.622s-72.272,163.387-253.483,170.814-405.131-5.927-451.542,200.52S764.148,825.5,903.769,832.93c243.708,12.963,360.2-211.741,462.231-47.188Z" opacity="0.1" fill="url(#linear-gradient)"/>
    <g id="Group_47" data-name="Group 47" transform="translate(431.326 52.457)">
      <path id="Path_2" data-name="Path 2" d="M419.2,278.854c14.08-61.9,78.438-99.043,138.868-79.609q1.821.586,3.672,1.222c78.994,27.154,53.075,107.384,92.572,132.069s67.887,60.48,50.606,107.384-122.2,91.338-204.894,40.731C435.015,440.872,401.278,357.619,419.2,278.854Z" transform="translate(34.509 41.223)" fill="none" stroke="#bfd9ff" stroke-miterlimit="10" stroke-width="1.109"/>
      <circle id="Ellipse_1" data-name="Ellipse 1" cx="51.223" cy="51.223" r="51.223" transform="translate(362.922 281.093) rotate(-80.912)" fill="none" stroke="#bfd9ff" stroke-miterlimit="10" stroke-width="1.109"/>
      <g id="Group_46" data-name="Group 46" transform="translate(396.633 132.543)">
        <path id="Path_3" data-name="Path 3" d="M619.666,453.479H440.513a5.554,5.554,0,0,1-5.072-7.816L562.558,160.541a5.551,5.551,0,0,1,5.072-3.292H746.784a5.554,5.554,0,0,1,5.074,7.816L624.74,450.188A5.556,5.556,0,0,1,619.666,453.479Z" transform="translate(-348.367 -115.988)" fill="url(#linear-gradient-2)"/>
        <path id="Path_4" data-name="Path 4" d="M651.006,268.916l57.816-129.681a4.756,4.756,0,0,0-4.344-6.692H542.256a15.248,15.248,0,0,0-13.928,9.04l-58.695,131.65a4.756,4.756,0,0,0,4.344,6.692H634.043A18.57,18.57,0,0,0,651.006,268.916Z" transform="translate(-325.408 -132.543)" fill="#fff"/>
        <path id="Path_5" data-name="Path 5" d="M638.442,322.129l57.816-129.681a4.756,4.756,0,0,0-4.344-6.692H529.691a15.25,15.25,0,0,0-13.927,9.04L457.07,326.446a4.756,4.756,0,0,0,4.344,6.692H621.48A18.572,18.572,0,0,0,638.442,322.129Z" transform="translate(-333.827 -96.887)" fill="none" stroke="#fff" stroke-miterlimit="10" stroke-width="1.109"/>
        <path id="Path_6" data-name="Path 6" d="M574.776,239.978h7.406l-19.9,38.88H441.935l4.858-9.49" transform="translate(-343.688 -60.554)" fill="none" stroke="#a1c2ff" stroke-miterlimit="10" stroke-width="0.554" opacity="0.39"/>
        <g id="Group_7" data-name="Group 7" transform="translate(181.553 6.321)">
          <g id="Group_2" data-name="Group 2">
            <ellipse id="Ellipse_2" data-name="Ellipse 2" cx="36.533" cy="27.452" rx="36.533" ry="27.452" transform="translate(0 47.859) rotate(-40.92)" fill="#e6f4ff"/>
            <g id="Group_1" data-name="Group 1" transform="translate(5.363 5.256)">
              <ellipse id="Ellipse_3" data-name="Ellipse 3" cx="32.235" cy="24.223" rx="32.235" ry="24.223" transform="translate(0 42.228) rotate(-40.92)" fill="#94c3ff"/>
            </g>
          </g>
          <g id="Group_6" data-name="Group 6" transform="translate(19.183 22.933)">
            <g id="Group_5" data-name="Group 5">
              <g id="Group_4" data-name="Group 4" transform="translate(0 3.376)">
                <g id="Group_3" data-name="Group 3">
                  <path id="Path_7" data-name="Path 7" d="M530.219,166.427s-14.682,2.427-20.951,4.9c-4.257,2.564-4.933,4.6-5.95,7.661l-.015.03c3.414,5.967,9.91,9.76,18.392,9.76,10.957,0,22.23-6.323,29.442-15.507C547.211,167.5,530.219,166.427,530.219,166.427Z" transform="translate(-503.303 -142.469)" fill="#4361c4"/>
                  <path id="Path_8" data-name="Path 8" d="M517.374,165.3l-2.532,10.7a2.029,2.029,0,0,0,1.615,2.664,12.024,12.024,0,0,0,8.507-1.857,3.792,3.792,0,0,0,1.772-2.789c.356-4.992,1.369-15.226,1.369-15.226Z" transform="translate(-495.623 -147.589)" fill="#ff8d68"/>
                  <path id="Path_9" data-name="Path 9" d="M517.258,158.455s-6.9,13.962-5.553,17.713c1.551,2.56,15.416-3.19,17.688-6.932s7.487-10.523,3.424-14.763S522.476,151.675,517.258,158.455Z" transform="translate(-497.789 -152.081)" fill="#ff8d68"/>
                </g>
              </g>
              <path id="Path_10" data-name="Path 10" d="M515.027,159.81s-1.214-4.933,2.959-7.839,9.531-2.325,11.458.581a31.889,31.889,0,0,1,2.093,3.342,3.928,3.928,0,0,1,2.737,2.615c.683,2.179-3.661,7.7-5.428,9.3s-1.4,1.64-1.4,1.64l-.591-.768A34.716,34.716,0,0,1,528.043,162c.23-1.308-1.263-3.2-3.9-3.632S520.541,160.383,515.027,159.81Z" transform="translate(-495.557 -150.06)" fill="#7e3636"/>
              <path id="Path_11" data-name="Path 11" d="M523.579,160.251a2.442,2.442,0,0,1,2.665-1.278c1.7.566-1.69,5.9-3.485,5.531C521.042,164.065,523.579,160.251,523.579,160.251Z" transform="translate(-490.665 -144.148)" fill="#ff8d68"/>
              <path id="Path_12" data-name="Path 12" d="M527.659,166.69s-3.686,4.068-7.312,5.231c-.636.194-1.58,1.453-1.58,1.453l-.661-1.744s-2.49-1.453-1.767-3.971l-.5.387-1.331,3.293a20.28,20.28,0,0,0-.932,4.262l3.337-1.84a6.5,6.5,0,0,0,3.653.1s.69,2.325,1.313,2.518,5.663-4.553,6.427-6.2a6.187,6.187,0,0,0,.655-3.293Z" transform="translate(-496.42 -138.917)" fill="#fff"/>
            </g>
          </g>
        </g>
        <g id="Group_8" data-name="Group 8" transform="translate(265.368 28.035)">
          <path id="Path_13" data-name="Path 13" d="M615.012,184.467H544.737c-2.156,0-3.267-1.747-2.482-3.9l9.947-27.329a6.174,6.174,0,0,1,5.324-3.9H627.8c2.156,0,3.268,1.747,2.483,3.9l-9.947,27.329A6.175,6.175,0,0,1,615.012,184.467Z" transform="translate(-542.003 -149.33)" fill="#a1c2ff" opacity="0.39"/>
          <path id="Path_14" data-name="Path 14" d="M612.43,157.907H551.916l1.066-2.928H613.5Z" transform="translate(-535.361 -145.545)" fill="#94c3ff"/>
          <path id="Path_15" data-name="Path 15" d="M586.865,162H550.427l1.066-2.928h36.439Z" transform="translate(-536.359 -142.803)" fill="#94c3ff"/>
          <path id="Path_16" data-name="Path 16" d="M558.514,165.7h-9.435l1.066-2.928h9.435Z" transform="translate(-537.262 -140.323)" fill="#94c3ff"/>
        </g>
        <g id="Group_11" data-name="Group 11" transform="translate(250.759 71.347)">
          <path id="Path_17" data-name="Path 17" d="M549.256,179.66a7.317,7.317,0,0,1-6.173,4.4c-2.43,0-3.6-1.967-2.622-4.4a7.322,7.322,0,0,1,6.174-4.4C549.064,175.264,550.238,177.231,549.256,179.66Z" transform="translate(-528.659 -175.264)" fill="#94c3ff"/>
          <path id="Path_18" data-name="Path 18" d="M558.4,179.66a7.317,7.317,0,0,1-6.172,4.4c-2.43,0-3.6-1.967-2.622-4.4a7.322,7.322,0,0,1,6.174-4.4C558.21,175.264,559.385,177.231,558.4,179.66Z" transform="translate(-522.531 -175.264)" fill="#94c3ff"/>
          <path id="Path_19" data-name="Path 19" d="M567.548,179.66a7.317,7.317,0,0,1-6.173,4.4c-2.43,0-3.6-1.967-2.622-4.4a7.322,7.322,0,0,1,6.174-4.4C567.356,175.264,568.53,177.231,567.548,179.66Z" transform="translate(-516.402 -175.264)" fill="#94c3ff"/>
          <path id="Path_20" data-name="Path 20" d="M576.694,179.66a7.317,7.317,0,0,1-6.172,4.4c-2.43,0-3.6-1.967-2.622-4.4a7.323,7.323,0,0,1,6.174-4.4C576.5,175.264,577.676,177.231,576.694,179.66Z" transform="translate(-510.274 -175.264)" fill="#ff8d02"/>
          <path id="Path_21" data-name="Path 21" d="M585.84,179.66a7.317,7.317,0,0,1-6.174,4.4c-2.428,0-3.6-1.967-2.62-4.4a7.323,7.323,0,0,1,6.174-4.4C585.648,175.264,586.823,177.231,585.84,179.66Z" transform="translate(-504.145 -175.264)" fill="#a1c2ff" opacity="0.39"/>
          <g id="Group_10" data-name="Group 10" transform="translate(0 11.802)">
            <g id="Group_9" data-name="Group 9" transform="translate(3.767 3.147)">
              <path id="Path_22" data-name="Path 22" d="M576.282,185.9l-19.389,20.152-20.09,7.967,22.772,16.715,22.886-19.527Z" transform="translate(-534.646 -183.087)" fill="#a1c2ff" opacity="0.39"/>
              <path id="Path_23" data-name="Path 23" d="M568.649,192.909l-14.8,8.445-12.513,7.909,16.972,12.189,16.046-14.657Z" transform="translate(-531.605 -178.39)" fill="#a1c2ff" opacity="0.7"/>
              <path id="Path_24" data-name="Path 24" d="M576.282,185.9l-19.389,20.152-20.09,7.967,22.708,16.871,22.949-19.683Z" transform="translate(-534.646 -183.087)" fill="none" stroke="#4361c4" stroke-miterlimit="10" stroke-width="0.281"/>
              <path id="Path_25" data-name="Path 25" d="M556.162,202.739a2.341,2.341,0,0,1-1.974,1.406c-.777,0-1.152-.63-.838-1.406a2.341,2.341,0,0,1,1.974-1.406C556.1,201.333,556.476,201.963,556.162,202.739Z" transform="translate(-523.632 -172.746)" fill="#4361c4"/>
              <path id="Path_26" data-name="Path 26" d="M548.975,193.85l17.16,13.591L535.511,209" transform="translate(-535.511 -177.76)" fill="none" stroke="#4361c4" stroke-miterlimit="10" stroke-width="0.281"/>
              <path id="Path_27" data-name="Path 27" d="M549.64,225.61l7.653-22.807,20.191-2.031" transform="translate(-526.043 -173.122)" fill="none" stroke="#4361c4" stroke-miterlimit="10" stroke-width="0.281"/>
              <line id="Line_1" data-name="Line 1" x1="11.523" y2="29.681" transform="translate(31.249)" fill="none" stroke="#4361c4" stroke-miterlimit="10" stroke-width="0.281"/>
            </g>
            <path id="Path_28" data-name="Path 28" d="M546.476,194.641a3.931,3.931,0,0,1-3.313,2.36c-1.3,0-1.932-1.057-1.406-2.36a3.929,3.929,0,0,1,3.313-2.36C546.372,192.281,547,193.338,546.476,194.641Z" transform="translate(-527.684 -175.664)" fill="#94c3ff"/>
            <path id="Path_29" data-name="Path 29" d="M538.161,203.878a3.925,3.925,0,0,1-3.312,2.36c-1.3,0-1.934-1.055-1.408-2.36a3.931,3.931,0,0,1,3.313-2.358C538.059,201.52,538.689,202.575,538.161,203.878Z" transform="translate(-533.256 -169.473)" fill="#ff8d02"/>
            <path id="Path_30" data-name="Path 30" d="M552.943,216.813a3.933,3.933,0,0,1-3.313,2.36c-1.3,0-1.932-1.057-1.406-2.36a3.929,3.929,0,0,1,3.313-2.36C552.84,214.453,553.469,215.51,552.943,216.813Z" transform="translate(-523.351 -160.807)" fill="#94c3ff"/>
            <path id="Path_31" data-name="Path 31" d="M569.925,201.736a3.933,3.933,0,0,1-3.313,2.36c-1.3,0-1.932-1.057-1.406-2.36a3.926,3.926,0,0,1,3.313-2.36C569.822,199.376,570.451,200.431,569.925,201.736Z" transform="translate(-511.972 -170.91)" fill="#94c3ff"/>
            <path id="Path_32" data-name="Path 32" d="M564.659,184.691a3.931,3.931,0,0,1-3.313,2.36c-1.3,0-1.932-1.057-1.406-2.36a3.926,3.926,0,0,1,3.313-2.36C564.556,182.331,565.185,183.386,564.659,184.691Z" transform="translate(-515.5 -182.331)" fill="#ff8d02"/>
          </g>
        </g>
        <g id="Group_12" data-name="Group 12" transform="translate(177.396 94.07)">
          <path id="Path_33" data-name="Path 33" d="M554.213,200H495.386l4.5-11.129h58.827Z" transform="translate(-485.268 -188.87)" fill="#4361c4"/>
          <path id="Path_34" data-name="Path 34" d="M522.848,212.442H489.328l1.927-4.77h33.521Z" transform="translate(-489.328 -176.271)" fill="#a1c2ff" opacity="0.39"/>
          <path id="Path_35" data-name="Path 35" d="M516.279,209.282H491.635l4.5-11.13h24.644Z" transform="translate(-487.781 -182.65)" fill="#a1c2ff" opacity="0.39"/>
        </g>
        <g id="Group_20" data-name="Group 20" transform="translate(246.034 170.337)">
          <path id="Path_36" data-name="Path 36" d="M620.937,303.155l28.787-64.567a2.369,2.369,0,0,0-2.163-3.332h-80.77a7.594,7.594,0,0,0-6.934,4.5L530.634,305.3a2.368,2.368,0,0,0,2.163,3.332h79.7A9.246,9.246,0,0,0,620.937,303.155Z" transform="translate(-530.427 -234.055)" fill="#fff"/>
          <g id="Group_19" data-name="Group 19" transform="translate(22.547 0)">
            <ellipse id="Ellipse_4" data-name="Ellipse 4" cx="31.813" cy="21.296" rx="31.813" ry="21.296" transform="matrix(0.774, -0.633, 0.633, 0.774, 0, 40.29)" fill="#a1c2ff" opacity="0.39"/>
            <g id="Group_18" data-name="Group 18">
              <g id="Group_17" data-name="Group 17" clip-path="url(#clip-path)">
                <g id="Group_16" data-name="Group 16" transform="translate(-1.734 17.076)">
                  <path id="Path_37" data-name="Path 37" d="M584.888,258.092s13.1,6.508,14.483,12.472-4.426,21.691-4.426,21.691H542.889s8.532-18.438,15.166-22.775,19.438-7.651,19.438-7.651Z" transform="translate(-542.889 -235.83)" fill="#4385ff"/>
                  <g id="Group_15" data-name="Group 15" transform="translate(26.663)">
                    <g id="Group_14" data-name="Group 14">
                      <g id="Group_13" data-name="Group 13" transform="translate(2.561 3.713)">
                        <path id="Path_38" data-name="Path 38" d="M566.56,257.382l-4.085,8.826c-.511,1.1-.207,2.113.745,2.4a9.429,9.429,0,0,0,7.038-.81,3.849,3.849,0,0,0,1.937-2.2c1.259-4.194,4.062-12.764,4.062-12.764Z" transform="translate(-559.154 -243.067)" fill="#94c3ff"/>
                        <path id="Path_39" data-name="Path 39" d="M568.229,251.5S560.081,262.7,560.4,266c.715,2.3,12.721-1.318,15.236-4.282s7.938-8.235,5.583-12.188S573.652,246.232,568.229,251.5Z" transform="translate(-560.388 -246.985)" fill="#94c3ff"/>
                      </g>
                      <path id="Path_40" data-name="Path 40" d="M569.6,251.347a5,5,0,0,0-.291.441c-.473.8-1.174,2.4.783,2.508l2.612.14s4.193-2.387,5.84.14c1.224,2.527-2.769,4.072-2.437,5.336s.164.982-.4,1.683a6.444,6.444,0,0,1-2.9,2.669c-1.886.842-3.372.7-5.174,1.685s-5.279-.142-5.64-.984c-.84-.7-1.323.842-1.86,1.825s-2.2,1.264-.6,2.527,2.774,1.825,5.56.14,2.871-1.543,5.682-2.246a9.525,9.525,0,0,0,5.972-3.868c1.07-1.749,1.416-3.995,2.32-4.837s1.4,0,1.007.982,3.429-.842,4.339-3.791-.691-2.807-.852-4.492,1.755-3.651-.289-5.194-3.961.421-4.686-.563-3.9-1.122-6.435.984a7.676,7.676,0,0,0-2.681,5.089" transform="translate(-558.854 -244.762)" fill="#4361c4"/>
                      <path id="Path_41" data-name="Path 41" d="M571.394,253.522s1.1-1.421,2.341-.842c1.219.631-2.483,4.843-3.819,4.371C568.655,256.524,571.394,253.522,571.394,253.522Z" transform="translate(-551.665 -239.549)" fill="#94c3ff"/>
                      <path id="Path_42" data-name="Path 42" d="M560.211,259.125s1.2-4.352,4.232-4.913,4.4,1.263,4.2,2.807a2.578,2.578,0,0,0,1.141,2.388S562.132,263.056,560.211,259.125Z" transform="translate(-557.945 -238.499)" fill="#4361c4"/>
                    </g>
                  </g>
                </g>
              </g>
            </g>
          </g>
        </g>
        <g id="Group_21" data-name="Group 21" transform="translate(209.824 258.704)">
          <path id="Path_43" data-name="Path 43" d="M599.256,355.347l28.785-64.567a2.367,2.367,0,0,0-2.163-3.332H545.111a7.6,7.6,0,0,0-6.936,4.5L508.952,357.5a2.369,2.369,0,0,0,2.163,3.332h79.7A9.249,9.249,0,0,0,599.256,355.347Z" transform="translate(-508.745 -287.449)" fill="#fff"/>
        </g>
        <g id="Group_28" data-name="Group 28" transform="translate(231.332 256.242)">
          <ellipse id="Ellipse_6" data-name="Ellipse 6" cx="32.512" cy="21.764" rx="32.512" ry="21.764" transform="translate(0 41.175) rotate(-39.289)" fill="#a1c2ff" opacity="0.39"/>
          <g id="Group_27" data-name="Group 27" transform="translate(0 0)">
            <g id="Group_26" data-name="Group 26" clip-path="url(#clip-path-2)">
              <g id="Group_25" data-name="Group 25" transform="translate(-14.974 17.695)">
                <path id="Path_44" data-name="Path 44" d="M553.919,304.155s3.965-1.887,4.5.4a4.379,4.379,0,0,1-1.219,3.923s3.582-.985,4.538,2.073-1.922,4.516-.73,5.6,3.662,3.42.207,7.295-8.509,8.319-14.368,5.456-3.992-16.794-3.992-16.794l1.431-4.068Z" transform="translate(-492.614 -291.977)" fill="#4361c4"/>
                <path id="Path_45" data-name="Path 45" d="M552.05,296.864s-8.828.743-11.615,6.927,2.754,6.618,2.754,6.618Z" transform="translate(-494.57 -296.373)" fill="#4361c4"/>
                <path id="Path_46" data-name="Path 46" d="M512.762,329.3l.568,1.024a137.089,137.089,0,0,0,12.86,13.31H538.8c6.577-5.994,15.552-16.44,15.592-16.866.058-.608,7.908-9.144,6.177-12.624s-3.975-2.923-3.975-2.923-2.558.351-5.431,3.325-17.04,24.941-17.04,24.941a20.564,20.564,0,0,0-5.167-5.783c-3.35-2.5-13.148-7.781-13.148-7.781s.6-4.239.544-5.05-2.5-4.511-3.235-3.716.99,4.274.99,4.274S512.2,328.279,512.762,329.3Z" transform="translate(-512.657 -286.771)" fill="#94c3ff"/>
                <path id="Path_47" data-name="Path 47" d="M533.277,338.367s.374,2.7,1.1,6.153H559.4c.554-5.65,1.724-17.008,2.423-19.7.94-3.624.11-11.338.409-13.457s-5.752-1.341-5.752-1.341l-7.884.132-1.272.545a10.037,10.037,0,0,0-4.361,3.646c-.977,1.495-2.415,3.671-4.349,6.527-3.113,2.362-9.979,6.465-9.473,11.639S533.277,338.367,533.277,338.367Z" transform="translate(-501.626 -287.652)" fill="#4385ff"/>
                <path id="Path_48" data-name="Path 48" d="M545.951,308.24s-7,8.656-8.925,19.55c2.283-.7,9.226-7.071,13.319-10.954,1.727-1.638,1.887-2.532,1.568-4.212-.157-.827.57-3.116,1.54-5.738C554.094,303.255,545.951,308.24,545.951,308.24Z" transform="translate(-496.328 -290.545)" fill="#94c3ff"/>
                <path id="Path_49" data-name="Path 49" d="M562.657,340.3s1.089,1.5,2.886,3.759h11.2c-2.158-2.861-3.875-5.171-4.407-5.979-1.83-2.774-14.635-30.7-22.436-27.22-1.443.641-6.654,5.017-4.528,9.924S562.657,340.3,562.657,340.3Z" transform="translate(-491.074 -287.193)" fill="#94c3ff"/>
                <g id="Group_24" data-name="Group 24" transform="translate(43.137)">
                  <g id="Group_23" data-name="Group 23" transform="translate(0 0.815)">
                    <g id="Group_22" data-name="Group 22">
                      <path id="Path_50" data-name="Path 50" d="M544.658,302.516a58.081,58.081,0,0,0-5.511,8.2c-1.438,2.792-.454,5.349,2.224,5.635,3.85.411,9.721-.543,11.652-2.749,2.864-3.277,9.01-9.075,6.515-13.581-2.421-4.374-7.939-3.92-13.885,1.421A8.837,8.837,0,0,0,544.658,302.516Z" transform="translate(-538.486 -297.058)" fill="#94c3ff"/>
                    </g>
                  </g>
                  <path id="Path_51" data-name="Path 51" d="M544,299.982s-3.865,6.318,7.11,10.351l1.381.623s4.793-3.806,4.863-7.836-2.008-5.5-4.1-6.375S545.467,298.472,544,299.982Z" transform="translate(-535.232 -296.57)" fill="#4361c4"/>
                </g>
                <path id="Path_52" data-name="Path 52" d="M548.476,305.716s2.777-1.916,2.746-.147-3.931,3.661-4.339,2.923S548.476,305.716,548.476,305.716Z" transform="translate(-489.76 -291.042)" fill="#94c3ff"/>
              </g>
            </g>
          </g>
        </g>
        <g id="Group_29" data-name="Group 29" transform="translate(120.269 247.558)">
          <path id="Path_53" data-name="Path 53" d="M547.419,306.312H458.456c-2.729,0-4.048-2.215-2.944-4.943l6.323-15.65a8.229,8.229,0,0,1,6.939-4.943h88.963c2.729,0,4.048,2.213,2.944,4.943l-6.323,15.65A8.232,8.232,0,0,1,547.419,306.312Z" transform="translate(-455.121 -280.775)" fill="#4385ff"/>
          <path id="Path_54" data-name="Path 54" d="M540.707,290.647H464.1l1.5-3.707H542.2Z" transform="translate(-449.105 -276.644)" fill="#fff"/>
        </g>
        <g id="Group_34" data-name="Group 34" transform="translate(113.146 10.403)">
          <g id="Group_30" data-name="Group 30" transform="translate(23.812)">
            <path id="Path_55" data-name="Path 55" d="M468.775,143.709h-3.009c-.533,0-.79-.431-.574-.964l1.216-3.009a1.605,1.605,0,0,1,1.354-.964h3.008c.533,0,.79.431.574.964l-1.216,3.009A1.6,1.6,0,0,1,468.775,143.709Z" transform="translate(-465.114 -138.772)" fill="#f9fbfc"/>
            <path id="Path_56" data-name="Path 56" d="M487.251,143.709h-3.009c-.533,0-.79-.431-.575-.964l1.216-3.009a1.605,1.605,0,0,1,1.353-.964h3.009c.533,0,.79.431.575.964l-1.216,3.009A1.605,1.605,0,0,1,487.251,143.709Z" transform="translate(-452.733 -138.772)" fill="#bfd9ff"/>
          </g>
          <g id="Group_31" data-name="Group 31" transform="translate(18.077 14.194)">
            <path id="Path_57" data-name="Path 57" d="M465.341,152.209h-3.01c-.533,0-.79-.433-.574-.965l1.216-3.008a1.607,1.607,0,0,1,1.354-.965h3.008c.533,0,.79.433.575.965l-1.214,3.008A1.607,1.607,0,0,1,465.341,152.209Z" transform="translate(-461.68 -147.271)" fill="#bfd9ff"/>
            <path id="Path_58" data-name="Path 58" d="M474.578,152.209H471.57c-.533,0-.79-.433-.574-.965l1.214-3.008a1.607,1.607,0,0,1,1.354-.965h3.009c.533,0,.79.433.575.965l-1.216,3.008A1.607,1.607,0,0,1,474.578,152.209Z" transform="translate(-455.49 -147.271)" fill="#f9fbfc"/>
            <path id="Path_59" data-name="Path 59" d="M483.818,152.209h-3.009c-.533,0-.79-.433-.574-.965l1.216-3.008a1.607,1.607,0,0,1,1.354-.965h3.008c.533,0,.79.433.575.965l-1.216,3.008A1.607,1.607,0,0,1,483.818,152.209Z" transform="translate(-449.3 -147.271)" fill="#f9fbfc"/>
            <path id="Path_60" data-name="Path 60" d="M491.207,152.209H488.2c-.533,0-.79-.433-.574-.965l1.216-3.008a1.6,1.6,0,0,1,1.353-.965H493.2c.533,0,.79.433.575.965l-1.216,3.008A1.607,1.607,0,0,1,491.207,152.209Z" transform="translate(-444.347 -147.271)" fill="#f9fbfc"/>
          </g>
          <g id="Group_32" data-name="Group 32" transform="translate(0 28.39)">
            <path id="Path_61" data-name="Path 61" d="M461.906,160.708H458.9c-.531,0-.79-.433-.574-.964l1.216-3.009a1.605,1.605,0,0,1,1.354-.964H463.9c.533,0,.79.431.575.964l-1.214,3.009A1.608,1.608,0,0,1,461.906,160.708Z" transform="translate(-445.904 -155.771)" fill="#f9fbfc"/>
            <path id="Path_62" data-name="Path 62" d="M454.515,160.708h-3.008c-.533,0-.79-.433-.574-.964l1.214-3.009a1.606,1.606,0,0,1,1.354-.964h3.009c.533,0,.79.431.574.964l-1.216,3.009A1.609,1.609,0,0,1,454.515,160.708Z" transform="translate(-450.856 -155.771)" fill="#f9fbfc"/>
            <path id="Path_63" data-name="Path 63" d="M471.144,160.708h-3.008c-.533,0-.79-.433-.575-.964l1.216-3.009a1.6,1.6,0,0,1,1.353-.964h3.009c.533,0,.79.431.575.964l-1.216,3.009A1.609,1.609,0,0,1,471.144,160.708Z" transform="translate(-439.714 -155.771)" fill="#f9fbfc"/>
            <path id="Path_64" data-name="Path 64" d="M480.383,160.708h-3.009c-.533,0-.79-.433-.575-.964l1.216-3.009a1.605,1.605,0,0,1,1.354-.964h3.008c.533,0,.79.431.574.964l-1.216,3.009A1.606,1.606,0,0,1,480.383,160.708Z" transform="translate(-433.524 -155.771)" fill="#bfd9ff"/>
          </g>
          <g id="Group_33" data-name="Group 33" transform="translate(6.608 42.583)">
            <path id="Path_65" data-name="Path 65" d="M458.472,169.207h-3.008c-.533,0-.79-.431-.576-.964l1.216-3.009a1.605,1.605,0,0,1,1.354-.964h3.008c.533,0,.79.431.576.964l-1.216,3.009A1.606,1.606,0,0,1,458.472,169.207Z" transform="translate(-454.813 -164.27)" fill="#f9fbfc"/>
          </g>
        </g>
        <g id="Group_39" data-name="Group 39" transform="translate(103.122 287.03)">
          <g id="Group_35" data-name="Group 35" transform="translate(33.563)">
            <path id="Path_66" data-name="Path 66" d="M470.11,311.369h-4.242c-.75,0-1.112-.608-.81-1.359l1.714-4.24a2.265,2.265,0,0,1,1.909-1.359h4.24c.752,0,1.114.61.81,1.359l-1.713,4.24A2.26,2.26,0,0,1,470.11,311.369Z" transform="translate(-464.951 -304.41)" fill="#4385ff"/>
            <path id="Path_67" data-name="Path 67" d="M496.151,311.369h-4.24c-.75,0-1.114-.608-.81-1.359l1.713-4.24a2.263,2.263,0,0,1,1.909-1.359h4.24c.75,0,1.112.61.81,1.359l-1.714,4.24A2.262,2.262,0,0,1,496.151,311.369Z" transform="translate(-447.501 -304.41)" fill="#4385ff"/>
          </g>
          <g id="Group_36" data-name="Group 36" transform="translate(25.48 20.007)">
            <path id="Path_68" data-name="Path 68" d="M465.268,323.349h-4.24c-.75,0-1.112-.61-.81-1.359l1.714-4.24a2.262,2.262,0,0,1,1.909-1.359h4.24c.75,0,1.114.608.81,1.359l-1.714,4.24A2.263,2.263,0,0,1,465.268,323.349Z" transform="translate(-460.111 -316.39)" fill="#bfd9ff"/>
            <path id="Path_69" data-name="Path 69" d="M478.29,323.349h-4.24c-.752,0-1.114-.61-.81-1.359l1.713-4.24a2.26,2.26,0,0,1,1.907-1.359h4.24c.752,0,1.114.608.81,1.359l-1.714,4.24A2.263,2.263,0,0,1,478.29,323.349Z" transform="translate(-451.386 -316.39)" fill="#ff8d02"/>
            <path id="Path_70" data-name="Path 70" d="M491.311,323.349h-4.24c-.752,0-1.114-.61-.81-1.359l1.714-4.24a2.26,2.26,0,0,1,1.907-1.359h4.242c.75,0,1.112.608.81,1.359l-1.714,4.24A2.266,2.266,0,0,1,491.311,323.349Z" transform="translate(-442.661 -316.39)" fill="#bfd9ff"/>
            <path id="Path_71" data-name="Path 71" d="M501.728,323.349h-4.24c-.75,0-1.114-.61-.81-1.359l1.714-4.24a2.26,2.26,0,0,1,1.907-1.359h4.242c.75,0,1.112.608.81,1.359l-1.714,4.24A2.265,2.265,0,0,1,501.728,323.349Z" transform="translate(-435.681 -316.39)" fill="#bfd9ff"/>
          </g>
          <g id="Group_37" data-name="Group 37" transform="translate(0 40.015)">
            <path id="Path_72" data-name="Path 72" d="M460.428,335.328h-4.24c-.75,0-1.112-.608-.81-1.359l1.714-4.24A2.264,2.264,0,0,1,459,328.37h4.24c.75,0,1.114.608.81,1.358l-1.714,4.24A2.262,2.262,0,0,1,460.428,335.328Z" transform="translate(-437.874 -328.37)" fill="#bfd9ff"/>
            <path id="Path_73" data-name="Path 73" d="M450.011,335.328h-4.24c-.75,0-1.112-.608-.81-1.359l1.714-4.24a2.264,2.264,0,0,1,1.909-1.358h4.24c.75,0,1.114.608.81,1.358l-1.714,4.24A2.262,2.262,0,0,1,450.011,335.328Z" transform="translate(-444.854 -328.37)" fill="#bfd9ff"/>
            <path id="Path_74" data-name="Path 74" d="M473.45,335.328h-4.24c-.752,0-1.114-.608-.81-1.359l1.712-4.24a2.266,2.266,0,0,1,1.909-1.358h4.24c.752,0,1.114.608.81,1.358l-1.714,4.24A2.26,2.26,0,0,1,473.45,335.328Z" transform="translate(-429.149 -328.37)" fill="#bfd9ff"/>
            <path id="Path_75" data-name="Path 75" d="M486.471,335.328h-4.24c-.752,0-1.114-.608-.81-1.359l1.714-4.24a2.261,2.261,0,0,1,1.907-1.358h4.242c.75,0,1.112.608.81,1.358l-1.714,4.24A2.265,2.265,0,0,1,486.471,335.328Z" transform="translate(-420.424 -328.37)" fill="#ff8d02"/>
          </g>
          <g id="Group_38" data-name="Group 38" transform="translate(9.314 60.021)">
            <path id="Path_76" data-name="Path 76" d="M455.588,347.308h-4.24c-.75,0-1.112-.608-.81-1.359l1.714-4.24a2.263,2.263,0,0,1,1.909-1.359h4.24c.75,0,1.112.608.81,1.359l-1.714,4.24A2.262,2.262,0,0,1,455.588,347.308Z" transform="translate(-450.431 -340.349)" fill="#ff8d02"/>
          </g>
        </g>
        <g id="Group_45" data-name="Group 45" transform="translate(0 54.221)">
          <path id="Path_77" data-name="Path 77" d="M560.616,273.731H440.272l19.9-38.88H580.519Z" transform="translate(-344.802 -118.21)" fill="#a1c2ff" opacity="0.39"/>
          <g id="Group_40" data-name="Group 40" transform="translate(173.811 113.605)">
            <ellipse id="Ellipse_8" data-name="Ellipse 8" cx="17.905" cy="13.963" rx="17.905" ry="13.963" transform="translate(0 23.703) rotate(-41.447)" fill="#73a5ff"/>
            <path id="Path_78" data-name="Path 78" d="M500.559,256.824a1.5,1.5,0,0,1-1.232-.569l-4.087-5.443a2.079,2.079,0,0,1,.685-2.749,1.932,1.932,0,0,1,2.751,0l3.053,4.068L512.64,243.4a1.93,1.93,0,0,1,2.749,0,2.078,2.078,0,0,1-.685,2.749l-12.629,10.109A2.471,2.471,0,0,1,500.559,256.824Z" transform="translate(-481.973 -226.471)" fill="#fff"/>
          </g>
          <g id="Group_44" data-name="Group 44">
            <path id="Path_79" data-name="Path 79" d="M447.959,192.772a5.013,5.013,0,1,1-4.987-5.528A5.279,5.279,0,0,1,447.959,192.772Z" transform="translate(-346.334 -150.11)" fill="none" stroke="#505e83" stroke-miterlimit="10" stroke-width="0.519"/>
            <path id="Path_80" data-name="Path 80" d="M418.938,208.438s-7.961.531-13.915,8.569,2.679,37.5,28.279,49.412c16.669,6.548,17.86-8.335,13.693-18.753S430.769,210.885,418.938,208.438Z" transform="translate(-369.629 -135.909)" fill="#fff"/>
            <path id="Path_81" data-name="Path 81" d="M546.2,400.094c0,3.783-36.511,6.849-81.548,6.849s-81.546-3.066-81.546-6.849,36.509-6.847,81.546-6.847S546.2,396.313,546.2,400.094Z" transform="translate(-383.107 -12.074)" fill="#bfd9ff"/>
            <g id="Group_41" data-name="Group 41" transform="translate(43.552 259.083)">
              <path id="Path_82" data-name="Path 82" d="M415.032,385.236s1.73-3.706,8.155-2.719,7.168,2.225,7.909,5.438,2.964,6.674,4.447,7.415,6.921,4.447,11.37,5.189,4.942,3.46,3.953,4.7-17.795,2.225-21.5,1.73c0,0-12.6-.247-15.57-1.236S414.785,386.472,415.032,385.236Z" transform="translate(-406.83 -278.458)" fill="#16142a"/>
              <path id="Path_83" data-name="Path 83" d="M434.312,385.236s1.73-3.706,8.157-2.719,7.166,2.225,7.908,5.438,2.966,6.674,4.449,7.415,6.919,4.447,11.368,5.189,4.943,3.46,3.955,4.7-17.795,2.225-21.5,1.73c0,0-12.6-.247-15.57-1.236S434.065,386.472,434.312,385.236Z" transform="translate(-393.911 -278.458)" fill="#16142a"/>
              <path id="Path_84" data-name="Path 84" d="M411.436,334.9a12.174,12.174,0,0,1,8.93-13.67c10.809-3.435,12.855,1.56,16.126,10.894s-2.764,97.49-2.764,97.49-13.172.3-16.363-1.585c0,0-8.8-58.5-8.145-72.742S411.436,334.9,411.436,334.9Z" transform="translate(-409.185 -320.142)" fill="#2b3554"/>
            </g>
            <path id="Path_85" data-name="Path 85" d="M441.2,192.8s2.53,3.424,2.53,5.209S440.3,199.8,440.3,199.8Z" transform="translate(-344.781 -146.385)" fill="#ff7759"/>
            <path id="Path_86" data-name="Path 86" d="M446.42,172.973s7.312,1.87,11.455,13.1,1.379,35.087-1.381,37.894-11.149,1.734-22.781-2.106c-12.292-4.057-16.444-16.834-18.64-25.261C410.866,180.458,424.9,163.849,446.42,172.973Z" transform="translate(-362.187 -161.413)" fill="#ff8d68"/>
            <path id="Path_87" data-name="Path 87" d="M417.841,217.869l5.93-21.253s11.862-3.46,19.278,4.447l2.472,3.46v13.84A79.158,79.158,0,0,1,417.841,217.869Z" transform="translate(-359.833 -144.336)" fill="#ff8d68"/>
            <path id="Path_88" data-name="Path 88" d="M408.719,280.123a195.751,195.751,0,0,0,0,55.607c4.447,29.657,13.346,32.623,21.5,32.623s10.38-23.725,11.863-34.106,7.415-45.969-3.706-54.124S414.65,271.225,408.719,280.123Z" transform="translate(-367.27 -92.162)" fill="#2b3554"/>
            <path id="Path_89" data-name="Path 89" d="M427.588,314.726s-8.9-23.727,6.672-34.106,27.433-8.9,31.14,8.155,4.449,75.626-.742,87.49S440.933,369.591,427.588,314.726Z" transform="translate(-354.998 -91.917)" fill="#2b3f63"/>
            <path id="Path_90" data-name="Path 90" d="M415.961,211.791s1.657-5.818,3.14-6.313,19.77-2.472,29.657,3.459c4.447,3.46,3.953,5.932,3.953,5.932S423.2,209.208,415.961,211.791Z" transform="translate(-361.092 -138.37)" fill="#fff"/>
            <path id="Path_91" data-name="Path 91" d="M476.506,277.555s1.488,3.572.595,4.763c-1.191,1.191-34.826,13.1-70.248,4.466-.6,0,.892-5.954.892-5.954Z" transform="translate(-367.29 -89.596)" fill="#6060e7"/>
            <path id="Path_92" data-name="Path 92" d="M407.864,270.5c-.989-6.919-3.955-41.025-2.966-45.969.924-4.619,4.87-13.125,13.05-15.832a16.706,16.706,0,0,1,1.779-.479s30.646-1.977,52.4,7.415c0,0,7.444,6.184,8.821,37.693,0,0-.409,5.314-1.6,16.626s.595,19.647,2.382,30.958,5.358,22.623-7.739,25c-12.5,2.382-47.033,8.334-67.274,2.382-4.167-2.978,1.787-16.671,1.787-27.386S407.864,270.5,407.864,270.5Z" transform="translate(-368.639 -136.171)" fill="#8182ee"/>
            <path id="Path_93" data-name="Path 93" d="M437.095,335.2a12.173,12.173,0,0,1,10.379-12.6c11.121-2.224,12.6,2.966,14.829,12.6s-10.962,93.7-10.962,93.7-14.553.838-17.519-1.386c0,0-3.4-58.205-1.176-72.292S437.095,335.2,437.095,335.2Z" transform="translate(-350.418 -59.755)" fill="#2b3f63"/>
            <path id="Path_94" data-name="Path 94" d="M424.8,295.092s10.379,33.365,18.165,49.676" transform="translate(-355.172 -77.845)" fill="none" stroke="#2a2e59" stroke-miterlimit="10" stroke-width="0.666"/>
            <path id="Path_95" data-name="Path 95" d="M437.448,329.493s6.3-3.708,12.606,0" transform="translate(-346.695 -55.898)" fill="none" stroke="#2a2e59" stroke-miterlimit="10" stroke-width="0.666"/>
            <path id="Path_96" data-name="Path 96" d="M436.782,331.554s5.19-2.966,14.087,3.337" transform="translate(-347.141 -53.88)" fill="none" stroke="#2a2e59" stroke-miterlimit="10" stroke-width="0.666"/>
            <path id="Path_97" data-name="Path 97" d="M413.475,326.787s4.078-3.706,13.345.371" transform="translate(-362.758 -57.64)" fill="none" stroke="#2a2e59" stroke-miterlimit="10" stroke-width="0.666"/>
            <path id="Path_98" data-name="Path 98" d="M415.251,328.777a11.147,11.147,0,0,1,11.492,1.483" transform="translate(-361.568 -55.922)" fill="none" stroke="#2a2e59" stroke-miterlimit="10" stroke-width="0.666"/>
            <line id="Line_2" data-name="Line 2" x1="2.224" y2="75.626" transform="translate(65.175 278.786)" fill="none" stroke="#2a2e59" stroke-miterlimit="10" stroke-width="0.666"/>
            <path id="Path_99" data-name="Path 99" d="M441.814,295.172s8.4,4.943,11.862-2.966" transform="translate(-343.769 -79.778)" fill="none" stroke="#2a2e59" stroke-miterlimit="10" stroke-width="0.666"/>
            <path id="Path_100" data-name="Path 100" d="M446.845,294.574s3.955,30.646,2.966,50.912" transform="translate(-340.398 -78.192)" fill="none" stroke="#2a2e59" stroke-miterlimit="10" stroke-width="0.666"/>
            <path id="Path_101" data-name="Path 101" d="M431.566,199.531s2.6,6.674,11.306,5.561" transform="translate(-350.636 -141.877)" fill="none" stroke="#e66657" stroke-miterlimit="10" stroke-width="0.666"/>
            <path id="Path_102" data-name="Path 102" d="M454.68,178.192s4.224,5.807,4.487,9.237-5.279,6.862-6.071,8.975,1.022,4.763.23,6.084a12.358,12.358,0,0,0-1.042,4.018l.272,2.989a2.147,2.147,0,0,1-1.718,2.3l-.633.125a1.913,1.913,0,0,1-2.161-1.167c-.95-2.385-2.911-6.839-4.449-7.223-2.113-.528-4.224,3.166-5.015,5.014-.446,1.042-1.568,3.856-2.462,6.112a5.517,5.517,0,0,1-4.745,3.469,26.144,26.144,0,0,1-6.027-.01c-1.847-.528-11.311-18.017-11.577-26.462s5.543-16.891,11.614-19.531S443.331,167.108,454.68,178.192Z" transform="translate(-362.567 -161.724)" fill="#7e3636"/>
            <path id="Path_103" data-name="Path 103" d="M412.66,218.8c0,2.377,9.947,38.2,8.364,44.539s-5.954,50.6-5.954,50.6" transform="translate(-363.304 -128.963)" fill="none" stroke="#6060e7" stroke-miterlimit="10" stroke-width="0.666"/>
            <path id="Path_104" data-name="Path 104" d="M412.677,209.113" transform="translate(-363.293 -135.456)" fill="none" stroke="#a6d0f4" stroke-miterlimit="10" stroke-width="0.535"/>
            <path id="Path_105" data-name="Path 105" d="M440.991,169.979s5.805.222,7.814-2.679,8.484-3.572,13.172,1.116,4.464,13.4.446,16.52c0,0,4.688-.893,5.358,2.457s-5.134,8.482-12.055,10.045c0,0-11.163-3.125-14.511-1.116s-25.9-.224-25.9-.224-4.912-4.466-3.572-8.484,2.68.224,2.68.224-1.117-5.581,6.251-13.618S438.312,170.649,440.991,169.979Z" transform="translate(-364.073 -165.009)" fill="#7e3636"/>
            <path id="Path_106" data-name="Path 106" d="M494.8,239.636l15.851.67s-.448,1.562-2.9,2.009-11.609,1.563-11.609,1.563Z" transform="translate(-308.265 -115.004)" fill="#eb7754"/>
            <path id="Path_107" data-name="Path 107" d="M496.451,241.924s5.358-.893,6.473-.67,2.233,6.7,2.233,6.7l-4.242,4.466s-1.563-.67,0-3.126l.894-1.563-6.475-2.455Z" transform="translate(-307.907 -113.944)" fill="#ff8d68"/>
            <g id="Group_43" data-name="Group 43" transform="translate(88.965 79.465)">
              <path id="Path_108" data-name="Path 108" d="M486.779,246.794l6.7-.892s5.581-5.581,6.7-6.251,6.7,8.036,7.367,9.152c0,.894-3.349,3.8-6.7,4.242s-4.466-.446-4.466-.446l-7.367,2.9Z" transform="translate(-402.604 -194.484)" fill="#ff8d68"/>
              <g id="Group_42" data-name="Group 42">
                <path id="Path_109" data-name="Path 109" d="M450.895,212.591s-14.956-.154-14.508,18.154,31.7,48.222,40.185,51.794,44.649-6.251,47.774-8.038,2.233-9.376-2.679-11.161l-37.059-1.787S461.383,214.082,450.895,212.591Z" transform="translate(-436.377 -212.591)" fill="#fff"/>
                <path id="Path_110" data-name="Path 110" d="M465.613,243.69s4.466,4.763,3.275,11.014" transform="translate(-416.787 -191.752)" fill="none" stroke="#a6d0f4" stroke-miterlimit="10" stroke-width="0.535"/>
                <path id="Path_111" data-name="Path 111" d="M467.039,243.156s7.442,2.382,8.038,10.418" transform="translate(-415.831 -192.11)" fill="none" stroke="#a6d0f4" stroke-miterlimit="10" stroke-width="0.535"/>
              </g>
            </g>
            <line id="Line_3" data-name="Line 3" x1="15.479" transform="translate(86.146 42.662)" fill="none" stroke="#505e83" stroke-miterlimit="10" stroke-width="0.519"/>
            <path id="Path_112" data-name="Path 112" d="M438.349,192.865s-1.052-4.563-4.912-2.457.7,12.981,3.86,12.28S439.05,194.619,438.349,192.865Z" transform="translate(-350.373 -148.362)" fill="#ff7759"/>
            <path id="Path_113" data-name="Path 113" d="M416.465,178.955s10.715-2.457,18.306,5.58" transform="translate(-360.755 -155.901)" fill="none" stroke="#663136" stroke-miterlimit="10" stroke-width="0.535"/>
            <path id="Path_114" data-name="Path 114" d="M417.311,179.173a12.911,12.911,0,0,1,12.5-2.827" transform="translate(-360.188 -157.758)" fill="none" stroke="#663136" stroke-miterlimit="10" stroke-width="0.535"/>
            <path id="Path_115" data-name="Path 115" d="M416.688,180.06a7.862,7.862,0,0,1,5.506,4.018" transform="translate(-360.605 -154.924)" fill="none" stroke="#663136" stroke-miterlimit="10" stroke-width="0.535"/>
            <path id="Path_116" data-name="Path 116" d="M436.115,167.316s10.717,3.35,8.26,13.172" transform="translate(-347.588 -163.463)" fill="none" stroke="#663136" stroke-miterlimit="10" stroke-width="0.535"/>
          </g>
        </g>
      </g>
    </g>
  </g>
</svg>
